<svg width="20" height="20" viewBox="0 0 20 20" fill="none" xmlns="http://www.w3.org/2000/svg">
<path d="M15.0252 13.8478L18.5943 17.4162L17.4152 18.5953L13.8469 15.0262C12.5191 16.0905 10.8677 16.6694 9.16602 16.667C5.02602 16.667 1.66602 13.307 1.66602 9.16699C1.66602 5.02699 5.02602 1.66699 9.16602 1.66699C13.306 1.66699 16.666 5.02699 16.666 9.16699C16.6684 10.8687 16.0895 12.5201 15.0252 13.8478ZM13.3535 13.2295C14.4111 12.1419 15.0017 10.684 14.9993 9.16699C14.9993 5.94449 12.3885 3.33366 9.16602 3.33366C5.94352 3.33366 3.33268 5.94449 3.33268 9.16699C3.33268 12.3895 5.94352 15.0003 9.16602 15.0003C10.683 15.0027 12.1409 14.4121 13.2285 13.3545L13.3535 13.2295Z" fill="black" fill-opacity="0.6"/>
</svg>
